<svg width="16" height="15" viewBox="0 0 16 15" fill="none" xmlns="http://www.w3.org/2000/svg">
<path fill-rule="evenodd" clip-rule="evenodd" d="M8.38203 1.81698C5.16468 1.81698 2.57332 4.38533 2.57332 7.53295C2.57332 8.56258 2.84958 9.52859 3.33427 10.3635L3.68776 9.25969C3.80272 8.9007 4.18693 8.70288 4.54592 8.81784C4.90491 8.9328 5.10273 9.31701 4.98777 9.676L4.229 12.0454C4.12473 12.371 3.79558 12.5692 3.45899 12.5091L0.572879 11.9936C0.201806 11.9273 -0.0452767 11.5728 0.0210038 11.2017C0.0872843 10.8306 0.441829 10.5835 0.812902 10.6498L2.05426 10.8715C1.51479 9.87725 1.20828 8.74038 1.20828 7.53295C1.20828 3.61299 4.42937 0.451935 8.38203 0.451935C12.3347 0.451935 15.5558 3.61299 15.5558 7.53295C15.5558 11.4529 12.3347 14.614 8.38203 14.614C8.00509 14.614 7.69951 14.3084 7.69951 13.9315C7.69951 13.5545 8.00509 13.2489 8.38203 13.2489C11.5994 13.2489 14.1907 10.6806 14.1907 7.53295C14.1907 4.38533 11.5994 1.81698 8.38203 1.81698ZM8.38203 3.65419C8.75898 3.65419 9.06455 3.95976 9.06455 4.33671V7.25024L10.3723 8.55797C10.6388 8.82451 10.6388 9.25666 10.3723 9.5232C10.1057 9.78974 9.67358 9.78974 9.40704 9.5232L7.89942 8.01557C7.77142 7.88757 7.69951 7.71397 7.69951 7.53295V4.33671C7.69951 3.95976 8.00509 3.65419 8.38203 3.65419Z" fill="#383636"/>
</svg>
