<svg width="14" height="14" viewBox="0 0 14 14" fill="none" xmlns="http://www.w3.org/2000/svg">
<path fill-rule="evenodd" clip-rule="evenodd" d="M2.57641 1.07909C3.01783 0.623911 3.64345 0.365479 4.37772 0.365479C5.2951 0.365479 5.91162 0.902029 6.37151 1.49219C6.57766 1.75673 6.78592 2.07764 7.00009 2.42803C7.21427 2.07764 7.42253 1.75673 7.62868 1.49219C8.08857 0.902029 8.70509 0.365479 9.62247 0.365479C10.3567 0.365479 10.9824 0.623911 11.4238 1.07909C11.8553 1.52411 12.0613 2.10659 12.0613 2.67306C12.0613 2.86548 12.0375 3.05976 11.9892 3.24986H12.7693C13.2473 3.24986 13.6347 3.63731 13.6347 4.11525V6.99994C13.6347 7.47788 13.2473 7.86532 12.7693 7.86532H12.5858V12.7693C12.5858 13.2473 12.1983 13.6347 11.7204 13.6347H2.27981C1.80188 13.6347 1.41443 13.2473 1.41443 12.7693V7.86532H1.23086C0.752924 7.86532 0.365479 7.47788 0.365479 6.99994V4.11525C0.365479 3.63731 0.752924 3.24986 1.23086 3.24986H2.01097C1.96267 3.05976 1.9389 2.86548 1.9389 2.67306C1.9389 2.10659 2.14484 1.52411 2.57641 1.07909ZM4.37772 3.24986C4.06303 3.24986 3.90194 3.14775 3.81888 3.06211C3.72597 2.9663 3.66967 2.82769 3.66967 2.67306C3.66967 2.51842 3.72597 2.37981 3.81888 2.28401C3.90194 2.19836 4.06303 2.09625 4.37772 2.09625C4.50929 2.09625 4.67948 2.13664 5.0063 2.55604C5.15796 2.75065 5.30786 2.97904 5.47417 3.24986H4.37772ZM6.13471 4.98063V6.13456H2.09625V4.98063H6.13471ZM3.1452 7.86532V11.9039H6.13471V7.86532H3.1452ZM7.86548 7.86532V11.9039H10.855V7.86532H7.86548ZM11.9039 6.13456V4.98063H7.86548V6.13456H11.9039ZM9.62247 3.24986C9.93716 3.24986 10.0982 3.14775 10.1813 3.06211C10.2742 2.9663 10.3305 2.82769 10.3305 2.67306C10.3305 2.51842 10.2742 2.37981 10.1813 2.28401C10.0982 2.19836 9.93716 2.09625 9.62247 2.09625C9.4909 2.09625 9.32071 2.13664 8.99388 2.55604C8.84223 2.75065 8.69233 2.97904 8.52602 3.24986H9.62247Z" fill="#383636"/>
</svg>
