<svg width="19" height="19" viewBox="0 0 19 19" fill="none" xmlns="http://www.w3.org/2000/svg">
<path fill-rule="evenodd" clip-rule="evenodd" d="M1.57093 17.5565L4.93797 16.6732L5.26282 16.866C6.6287 17.6766 8.19441 18.1054 9.79077 18.1061H9.79437C14.6977 18.1061 18.6885 14.1152 18.6905 9.20981C18.6914 6.83271 17.7669 4.59761 16.0873 2.91604C14.4077 1.23447 12.1741 0.307953 9.79787 0.307129C4.89076 0.307129 0.899897 4.29763 0.89795 9.2026C0.897261 10.8836 1.36759 12.5206 2.25812 13.937L2.46964 14.2736L1.57093 17.5565ZM14.8205 11.5148C15.007 11.605 15.133 11.6658 15.1868 11.7556C15.2536 11.8671 15.2536 12.4026 15.0309 13.0274C14.8079 13.6521 13.7395 14.2223 13.2256 14.299C12.7649 14.3679 12.1818 14.3967 11.5412 14.193C11.1527 14.0698 10.6546 13.9053 10.0165 13.6297C7.50933 12.5471 5.81498 10.1171 5.49474 9.6578C5.47231 9.62563 5.45662 9.60313 5.44786 9.59144L5.44571 9.58856C5.30417 9.39972 4.35584 8.1344 4.35584 6.82486C4.35584 5.59296 4.96097 4.94726 5.23951 4.65004C5.25859 4.62968 5.27614 4.61095 5.29186 4.59378C5.53699 4.32603 5.82675 4.25909 6.00503 4.25909C6.1833 4.25909 6.36179 4.26074 6.51761 4.26857C6.53683 4.26953 6.55683 4.26942 6.57751 4.26929C6.73336 4.26838 6.92766 4.26724 7.11933 4.72766C7.19308 4.90485 7.30098 5.16754 7.41478 5.44459C7.64491 6.00485 7.89917 6.62386 7.9439 6.71343C8.01078 6.84731 8.05534 7.00343 7.9662 7.182C7.95282 7.20877 7.94044 7.23404 7.92861 7.25818C7.86166 7.39487 7.81241 7.49542 7.69877 7.62811C7.65408 7.68028 7.60789 7.73653 7.56171 7.79277C7.4697 7.90482 7.3777 8.01686 7.29759 8.09667C7.16371 8.23003 7.02433 8.37472 7.18034 8.64247C7.33635 8.91022 7.87308 9.78597 8.66813 10.4951C9.52278 11.2575 10.2656 11.5796 10.6421 11.743C10.7156 11.7749 10.7752 11.8007 10.8189 11.8226C11.0862 11.9565 11.2422 11.9341 11.3982 11.7556C11.5542 11.5771 12.0668 10.9747 12.245 10.707C12.4233 10.4393 12.6017 10.4839 12.8468 10.5731C13.0919 10.6625 14.4068 11.3094 14.6742 11.4432C14.7265 11.4694 14.7753 11.493 14.8205 11.5148Z" fill="#F3F4F6"/>
</svg>
