<svg width="114" height="19" viewBox="0 0 114 19" fill="none" xmlns="http://www.w3.org/2000/svg">
<path d="M54.3065 0.769287H50.6304V2.10277H54.3065V0.769287Z" fill="white"/>
<path d="M94.1888 0.684448H90.8984V18.4976H94.1888V0.684448Z" fill="white"/>
<path fill-rule="evenodd" clip-rule="evenodd" d="M17.8651 3.89008V0.684448H0.0595703V18.5H3.34993V14.8113H17.8651V11.6057H3.34993V3.89008H17.8651Z" fill="white"/>
<path fill-rule="evenodd" clip-rule="evenodd" d="M83.1445 0.684448H61.1016V3.89008H70.4776V18.4973H73.7682V3.89008H83.1445V0.684448Z" fill="white"/>
<path d="M99.8502 15.3648V15.355C102.094 15.1271 104.55 14.6243 106.718 13.8569C108.248 13.3149 109.716 12.6133 110.876 11.7232C112.03 10.837 113.01 9.65885 113.263 8.16108C113.688 5.64071 112.725 3.62972 111.047 2.31326C109.447 1.05786 107.297 0.5 105.298 0.5C103.462 0.5 101.432 0.775781 99.854 1.97695C98.1984 3.237 97.3909 5.23347 97.3909 7.91296H100.682C100.682 5.82119 101.291 4.89416 101.909 4.42366C102.604 3.89428 103.705 3.63246 105.298 3.63246C106.725 3.63246 108.076 4.04134 108.954 4.73066C109.756 5.35918 110.249 6.27169 110.014 7.66484C109.937 8.12356 109.604 8.67595 108.811 9.28502C108.022 9.88999 106.908 10.4479 105.571 10.9211C102.895 11.8681 99.6517 12.3638 97.2244 12.3638V15.4963C97.2252 15.4963 97.2235 15.4963 97.2244 15.4963V17.0307V18.4973H113.812V15.3648H99.8502Z" fill="white"/>
<path fill-rule="evenodd" clip-rule="evenodd" d="M24.1158 0.684448H20.8252V18.4976H38.4737V15.2917H24.1158V0.684448Z" fill="white"/>
<path d="M50.0642 0.684448L40.748 18.4976H46.7034L57.5586 13.0468L60.4094 18.4976H64.1022L54.7863 0.684448H50.0642ZM46.164 15.2034L52.4208 3.24015H52.43L56.082 10.2232L46.164 15.2034Z" fill="white"/>
</svg>
