<svg width="191" height="32" viewBox="0 0 191 32" fill="none" xmlns="http://www.w3.org/2000/svg">
<path d="M104.926 31.9996C104.84 31.8071 104.856 31.621 104.948 31.4334C105.374 30.5705 105.795 29.7053 106.22 28.8424C106.489 28.2975 106.772 27.7592 107.031 27.2098C107.332 26.5705 107.661 25.9452 107.967 25.3083C108.377 24.4525 108.799 23.6021 109.22 22.7515C109.789 21.6027 110.351 20.4508 110.915 19.2999C111.27 18.5743 111.641 17.8555 111.986 17.1259C112.26 16.5492 112.561 15.9868 112.83 15.4086C113.201 14.6097 113.612 13.831 113.994 13.0377C114.274 12.4565 114.586 11.8901 114.848 11.3016C115.184 10.5439 115.588 9.82063 115.924 9.06295C116.182 8.48124 116.487 7.92029 116.774 7.35156C116.879 7.1435 117.062 7.05599 117.286 7.04514C117.371 7.04089 117.458 7.04419 117.544 7.04419C118.506 7.04419 119.469 7.04396 120.432 7.04443C120.525 7.04443 120.619 7.0574 120.711 7.05976C120.951 7.06566 121.068 7.21167 121.163 7.40251C121.726 8.54351 122.292 9.68381 122.856 10.8246C123.163 11.4462 123.472 12.0665 123.774 12.6909C124.071 13.3045 124.413 13.8964 124.701 14.5141C124.86 14.8552 125.027 15.1916 125.195 15.528C125.507 16.1531 125.808 16.7837 126.125 17.4062C126.463 18.0688 126.765 18.75 127.093 19.4179C127.392 20.0255 127.711 20.6233 128.011 21.2304C128.26 21.7345 128.491 22.2478 128.738 22.7536C128.963 23.2162 129.198 23.6743 129.43 24.1335C129.532 24.3348 129.649 24.5284 129.738 24.7353C129.882 25.0743 129.688 25.3562 129.347 25.4364C129.28 25.4522 129.206 25.4423 129.136 25.4423C128.001 25.4425 126.866 25.438 125.732 25.4468C125.52 25.4484 125.364 25.3802 125.21 25.2432C125.121 25.1642 125.078 25.0561 125.051 24.9703C124.953 24.6556 124.778 24.3808 124.642 24.0868C124.384 23.5294 124.11 22.9789 123.851 22.4222C123.79 22.2934 123.711 22.2195 123.568 22.2235C123.513 22.225 123.458 22.2242 123.403 22.2242C121.275 22.2242 119.146 22.2238 117.017 22.2252C116.757 22.2254 116.55 22.1535 116.435 21.8909C116.382 21.7694 116.388 21.6664 116.441 21.5543C116.535 21.3581 116.627 21.1608 116.718 20.9636C116.89 20.5902 117.052 20.2114 117.237 19.8439C117.481 19.3563 117.7 18.8562 117.946 18.3705C118.012 18.2405 118.123 18.1318 118.306 18.1146C118.469 18.0995 118.631 18.0818 118.795 18.0818C119.664 18.0818 120.532 18.082 121.401 18.0815C121.464 18.0815 121.528 18.0874 121.588 18.074C121.65 18.0601 121.705 18.0339 121.656 17.9433C121.386 17.4423 121.171 16.9141 120.925 16.401C120.663 15.8547 120.397 15.31 120.133 14.7644C119.942 14.3686 119.736 13.9801 119.54 13.5864C119.468 13.4404 119.401 13.2911 119.341 13.1396C119.27 12.9632 119.108 12.9087 118.956 12.8688C118.806 12.8297 118.698 12.9492 118.6 13.0516C118.463 13.1946 118.412 13.3871 118.325 13.5576C118.068 14.0678 117.829 14.587 117.577 15.1003C117.297 15.6731 117.018 16.247 116.743 16.8226C116.456 17.4229 116.16 18.0183 115.877 18.6198C115.594 19.2206 115.278 19.8047 115.005 20.4093C114.735 21.007 114.429 21.5864 114.158 22.1827C113.889 22.7741 113.586 23.3478 113.305 23.933C112.97 24.6332 112.636 25.3345 112.299 26.0344C112.063 26.5243 111.823 27.0124 111.587 27.5021C111.29 28.117 110.997 28.7337 110.698 29.3477C110.458 29.8435 110.211 30.3363 109.969 30.8317C109.791 31.1968 109.616 31.5634 109.441 31.9302C109.431 31.95 109.436 31.9767 109.434 32C107.932 31.9996 106.429 31.9996 104.926 31.9996Z" fill="#5B8388"/>
<path d="M18.8054 31.8646C18.7643 31.9536 18.6835 31.9507 18.6047 31.951C18.0815 31.9526 17.5568 31.9642 17.0372 31.9031C16.7341 31.8675 16.4335 31.846 16.1297 31.8566C15.8583 31.8439 15.5829 31.8771 15.319 31.7797C15.2837 31.7667 15.2412 31.7689 15.2025 31.7703C14.8186 31.7863 14.4507 31.6467 14.0677 31.6552C13.8198 31.5224 13.5364 31.5754 13.2723 31.5077C13.044 31.4492 12.8015 31.4103 12.5648 31.3686C12.338 31.3285 12.1067 31.2968 11.8865 31.2145C11.7567 31.1659 11.6151 31.1468 11.4798 31.1164C10.8804 30.9817 10.2979 30.7909 9.72029 30.5892C9.19083 30.4042 8.67358 30.1846 8.15962 29.9546C7.25637 29.5505 6.40243 29.0672 5.59098 28.5041C4.68303 27.8741 3.87464 27.132 3.15006 26.2962C2.55345 25.6081 2.05099 24.8547 1.62156 24.0526C1.3553 23.5554 1.12614 23.0407 0.939481 22.5059C0.802127 22.1124 0.670408 21.7194 0.558881 21.3168C0.384898 20.6895 0.266093 20.0552 0.172175 19.412C0.115355 19.0223 0.10432 18.6309 0.0601788 18.2419C-0.0144856 17.5838 -0.0156596 16.9242 0.0345862 16.2687C0.0674574 15.841 0.074736 15.4098 0.154801 14.9833C0.209742 14.6918 0.232987 14.3913 0.29732 14.1011C0.372924 13.7598 0.441249 13.4163 0.548315 13.0811C0.623449 12.8459 0.683086 12.6048 0.764795 12.3711C0.939481 11.8698 1.14469 11.3822 1.37972 10.906C1.59456 10.4703 1.83757 10.0513 2.105 9.64819C2.3513 9.2769 2.62507 8.92401 2.91034 8.58032C3.44285 7.93846 4.04228 7.36383 4.6936 6.84935C5.47429 6.23249 6.30874 5.69443 7.20025 5.24883C7.61654 5.04077 8.03847 4.84876 8.46861 4.67042C8.75318 4.55248 9.03963 4.43147 9.32866 4.33381C9.56885 4.25266 9.81656 4.17411 10.0603 4.0991C10.3423 4.01205 10.6362 3.96393 10.9116 3.84858C11.0283 3.79975 11.1673 3.78277 11.2913 3.76248C11.5054 3.72757 11.709 3.6502 11.9278 3.62967C12.1335 3.61033 12.3375 3.55419 12.5442 3.52093C13.021 3.44403 13.496 3.36548 13.9802 3.3433C14.2206 3.33222 14.4641 3.33906 14.7026 3.28504C14.7766 3.26829 14.8578 3.28244 14.9459 3.28244C14.9407 3.37703 14.8886 3.41714 14.8137 3.46738C14.368 3.76507 13.9259 4.06985 13.5101 4.40835C12.7442 5.03228 12.0039 5.6857 11.35 6.43041C10.9055 6.93663 10.4834 7.45889 10.0953 8.01276C9.64211 8.65934 9.25564 9.34083 8.92458 10.0532C8.66748 10.6066 8.46227 11.1822 8.3005 11.7747C8.20376 12.1298 8.12158 12.4876 8.05913 12.8473C7.98705 13.2632 7.91051 13.6819 7.91497 14.1084C7.91919 14.5092 7.91684 14.9102 7.92647 15.311C7.93445 15.6485 8.01781 15.975 8.08637 16.3039C8.16173 16.665 8.27091 17.0136 8.39606 17.3597C8.57615 17.8581 8.81282 18.3299 9.09269 18.7753C9.45193 19.3468 9.87925 19.8682 10.3704 20.3338C10.8839 20.8205 11.4493 21.2354 12.0666 21.5788C12.5366 21.8404 13.0281 22.0591 13.539 22.2193C14.0436 22.3776 14.5608 22.4889 15.0889 22.5592C15.7986 22.6536 16.5075 22.6491 17.2166 22.604C17.7688 22.5689 18.3222 22.5144 18.8679 22.4236C19.2339 22.3627 19.599 22.2787 19.9587 22.1719C20.2804 22.0763 20.2658 22.0987 20.2534 22.3981C20.2337 22.8751 20.0475 23.2952 19.812 23.6993C19.3964 24.4126 18.7974 24.961 18.1996 25.509C17.73 25.9395 17.214 26.3167 16.7533 26.7578C16.3337 27.1598 15.9001 27.5485 15.612 28.0687C15.4002 28.4511 15.3368 28.8561 15.387 29.2826C15.4014 29.4041 15.4849 29.5123 15.4751 29.6423C15.4643 29.7192 15.4394 29.8027 15.5547 29.8239C15.5617 29.856 15.569 29.8881 15.5761 29.9202C15.6263 30.0855 15.6927 30.2401 15.8472 30.337L15.8503 30.3509C15.8362 30.4205 15.8796 30.4335 15.9336 30.4358C15.9402 30.4524 15.9466 30.4689 15.9529 30.4854C16.0114 30.5958 16.0825 30.6915 16.2154 30.717L16.2243 30.7324C16.3614 30.9574 16.5866 31.0576 16.8158 31.1518C16.8158 31.1518 16.8345 31.165 16.8343 31.1647C16.8716 31.2152 16.9158 31.2589 16.9742 31.2839C17.2633 31.4077 17.5457 31.5535 17.8449 31.6436C17.9853 31.6858 18.1184 31.8059 18.2849 31.7495C18.3196 31.7538 18.3546 31.758 18.3893 31.7623C18.4387 31.8623 18.5218 31.8684 18.6159 31.8439C18.6791 31.8519 18.7422 31.8583 18.8054 31.8646Z" fill="#383636"/>
<path d="M14.8212 0.0285107C14.994 -0.0181957 15.1616 0.00610102 15.3279 0.00798815C15.3744 0.00845993 15.4211 0.0254441 15.4673 0.0240287C16.0771 0.00539335 16.685 0.0676685 17.2903 0.109657C17.784 0.143861 18.2879 0.138672 18.7751 0.263458C18.82 0.275017 18.8686 0.277847 18.915 0.275488C19.2541 0.258032 19.5805 0.356635 19.9122 0.398152C20.2632 0.442027 20.6161 0.505954 20.9624 0.583326C21.2806 0.654329 21.6081 0.685703 21.9178 0.78171C22.204 0.870169 22.4989 0.922065 22.783 1.0235C23.0052 1.10276 23.2406 1.15064 23.4661 1.2299C23.7767 1.33936 24.1014 1.41319 24.4038 1.54081C24.7572 1.69013 25.119 1.81798 25.4672 1.98239C25.8966 2.18502 26.3218 2.39355 26.7403 2.61812C27.589 3.07363 28.3697 3.62962 29.1133 4.23916C29.6073 4.64419 30.0515 5.10488 30.4796 5.57737C30.6918 5.81185 30.8874 6.06567 31.0752 6.3242C31.2945 6.62614 31.5084 6.93068 31.7078 7.24583C31.9499 7.62868 32.1696 8.02497 32.3631 8.43519C32.4861 8.69608 32.6153 8.95627 32.7115 9.22731C32.813 9.51297 32.9522 9.78944 33.017 10.0824C33.0799 10.3664 33.2208 10.6304 33.2262 10.9274C33.3715 11.0998 33.2581 11.3463 33.3957 11.5247C33.4239 11.5612 33.4171 11.632 33.4124 11.6858C33.403 11.7912 33.4168 11.8884 33.4732 11.9797C33.4892 12.0054 33.5037 12.0391 33.5011 12.0677C33.4699 12.4076 33.6425 12.7265 33.6005 13.0681C33.5911 13.1443 33.5993 13.2273 33.6197 13.3016C33.6765 13.508 33.6948 13.7173 33.6984 13.93C33.7096 14.6217 33.7122 15.3133 33.6913 16.0049C33.6901 16.0436 33.6831 16.0828 33.6749 16.1208C33.6284 16.3347 33.5819 16.547 33.603 16.7706C33.6148 16.8942 33.6035 17.0226 33.5479 17.14C33.5131 17.2132 33.5061 17.2901 33.5101 17.3698C33.5162 17.4962 33.5138 17.6213 33.4413 17.7335C33.4103 17.7814 33.4016 17.8387 33.4082 17.8928C33.4234 18.015 33.4016 18.1263 33.3365 18.2308C33.3248 18.2497 33.3199 18.2759 33.3192 18.2987C33.31 18.6101 33.1879 18.8977 33.1079 19.1902C33.0226 19.5018 32.8876 19.8049 32.7754 20.1106C32.6101 20.5602 32.3807 20.9756 32.1792 21.4056C32.0959 21.5837 31.987 21.7503 31.8804 21.9178C31.7397 22.1388 31.6082 22.3653 31.4479 22.5733C31.3006 22.7639 31.1572 22.9573 31.0116 23.1494C30.9926 23.1744 30.9684 23.1954 30.9508 23.2208C30.6183 23.7046 30.1941 24.1071 29.77 24.5027C29.3779 24.8683 28.9553 25.2044 28.5172 25.5163C28.0011 25.8838 27.466 26.2232 26.9117 26.528C26.5008 26.7538 26.0683 26.9401 25.6442 27.1416C25.1737 27.365 24.6802 27.5303 24.1927 27.7096C23.8638 27.8306 23.5238 27.9228 23.1857 28.0158C22.819 28.1167 22.452 28.2234 22.0784 28.2894C21.8488 28.33 21.614 28.3633 21.3905 28.4189C21.0564 28.5022 20.7077 28.4675 20.3799 28.5798C20.3015 28.6067 20.2092 28.5942 20.1233 28.5956C19.8265 28.6003 19.533 28.6343 19.2395 28.6765C19.132 28.6921 19.0209 28.6834 18.9115 28.6841C18.8733 28.6843 18.8254 28.6881 18.8129 28.6421C18.7991 28.5906 18.8347 28.5553 18.8749 28.5272C18.9507 28.4744 19.0273 28.4225 19.1024 28.3687C19.6652 27.9651 20.2106 27.5405 20.7424 27.0946C21.2475 26.6712 21.7044 26.2018 22.1658 25.735C22.5504 25.346 22.8964 24.9242 23.2352 24.4937C23.6328 23.9889 23.9868 23.4551 24.3083 22.9031C24.5776 22.4407 24.811 21.9546 25.003 21.45C25.1162 21.1528 25.2526 20.86 25.328 20.5541C25.4071 20.2328 25.5381 19.9271 25.5787 19.5905C25.6022 19.3966 25.6543 19.1961 25.6898 18.9981C25.7166 18.8481 25.7943 18.7002 25.7222 18.5393C25.7001 18.4903 25.7328 18.433 25.7452 18.3792C25.8563 17.9015 25.8602 17.4153 25.8415 16.9294C25.8351 16.7671 25.7886 16.6064 25.764 16.4444C25.7501 16.3533 25.7133 16.2649 25.749 16.1672C25.7633 16.1278 25.7508 16.0726 25.7363 16.0295C25.6494 15.7733 25.6313 15.5001 25.5543 15.2444C25.5038 15.0772 25.4343 14.9069 25.3803 14.7422C25.2949 14.4815 25.1685 14.2449 25.0608 13.9975C24.8814 13.5852 24.6548 13.2028 24.3918 12.8364C24.0972 12.426 23.7811 12.0391 23.4184 11.6879C22.9798 11.263 22.4945 10.9005 21.9815 10.575C21.5598 10.3072 21.108 10.093 20.6471 9.9055C20.4158 9.81138 20.1705 9.74132 19.9286 9.66913C19.7526 9.61677 19.5591 9.62078 19.3971 9.51982C19.3844 9.5118 19.367 9.50661 19.3522 9.50731C19.0618 9.52147 18.7927 9.39126 18.5013 9.38937C18.112 9.38677 17.7277 9.28416 17.3349 9.31388C16.7749 9.35611 16.2123 9.3712 15.6545 9.42263C15.2483 9.46014 14.8374 9.51557 14.4382 9.6078C14.164 9.67126 13.8801 9.71608 13.6212 9.83803C13.5279 9.88191 13.4861 9.8378 13.4692 9.75877C13.4563 9.69839 13.4441 9.62809 13.4624 9.57242C13.5524 9.30044 13.5751 9.01336 13.6888 8.74374C13.9931 8.02191 14.4875 7.44516 15.0419 6.91888C15.3945 6.58392 15.7636 6.26381 16.141 5.95456C16.7486 5.4566 17.3358 4.93363 17.8524 4.33777C18.148 3.9969 18.3163 3.59164 18.3957 3.14958C18.4135 3.05074 18.4154 2.9479 18.3755 2.84764C18.3497 2.78301 18.333 2.71177 18.3274 2.64242C18.2921 2.20531 18.0933 1.84652 17.8054 1.5309C17.3588 1.04095 16.8134 0.705753 16.1957 0.473165C15.7589 0.308749 15.3187 0.16344 14.8616 0.0702633C14.8503 0.0679044 14.8416 0.0499767 14.8212 0.0285107Z" fill="#5B8388"/>
<path d="M61.7038 16.2215C61.7038 13.3675 61.7041 10.5132 61.7031 7.65917C61.7031 7.45724 61.7339 7.26712 61.9109 7.14492C62.0293 7.06307 62.161 7.0074 62.3143 7.00882C62.8543 7.01353 63.3943 7.01094 63.9344 7.01094C67.0179 7.01094 70.1015 7.00551 73.1848 7.01849C73.5048 7.0199 73.8323 7.06472 74.1509 7.11143C74.5257 7.16639 74.9006 7.26122 75.2571 7.39025C75.9983 7.65846 76.6785 8.0432 77.2648 8.58079C77.6787 8.96034 78.0419 9.38259 78.3364 9.86333C78.6247 10.3339 78.8513 10.8291 79.0088 11.3617C79.2711 12.2482 79.3265 13.1517 79.2511 14.0629C79.2166 14.4807 79.1316 14.8956 79.0145 15.3042C78.8078 16.0241 78.4834 16.678 78.0419 17.2793C77.6174 17.8575 77.1 18.3304 76.4928 18.7062C76.3298 18.8069 76.1676 19.0883 76.3115 19.3153C76.42 19.486 76.5259 19.6587 76.6384 19.8271C77.2044 20.6742 77.771 21.5211 78.3401 22.3663C78.729 22.9435 79.1227 23.5172 79.5136 24.093C79.6425 24.2829 79.786 24.4652 79.8926 24.6672C80.0292 24.9252 79.9783 25.4107 79.5266 25.4406C79.4409 25.4463 79.3547 25.4482 79.2685 25.4482C78.1493 25.4487 77.0302 25.4425 75.9112 25.4524C75.5942 25.4553 75.3907 25.3567 75.2148 25.0668C74.9553 24.6396 74.6689 24.2263 74.3942 23.8071C73.8786 23.0199 73.3703 22.228 72.8549 21.4404C72.5194 20.9276 72.1714 20.423 71.841 19.9069C71.7359 19.7425 71.6006 19.6762 71.4189 19.6757C71.012 19.675 70.6049 19.6755 70.198 19.6752C69.5093 19.6752 68.8204 19.6712 68.1318 19.6776C67.9594 19.6792 67.8303 19.6099 67.719 19.4936C67.6481 19.4198 67.6026 19.3358 67.6051 19.2214C67.6115 18.9385 67.6016 18.6555 67.6014 18.3724C67.6009 17.6569 67.6044 16.9415 67.6009 16.2258C67.6 16.0371 67.6702 15.8996 67.8223 15.7887C67.877 15.7488 67.9266 15.7255 67.9888 15.7222C68.0825 15.717 68.1764 15.7118 68.2701 15.7118C69.6161 15.7111 70.9624 15.7207 72.3083 15.7042C72.6079 15.7005 72.9096 15.6431 73.2068 15.5573C73.6313 15.4346 73.9685 15.2056 74.2482 14.8737C74.4247 14.6642 74.5146 14.4165 74.6006 14.1587C74.7166 13.811 74.7034 13.4557 74.6713 13.1104C74.5989 12.3359 74.2268 11.7488 73.4982 11.4176C73.2026 11.2832 72.8925 11.235 72.5752 11.194C72.2245 11.1485 71.8739 11.1525 71.5224 11.1522C70.0512 11.1518 68.5798 11.152 67.1085 11.152C67.0304 11.152 66.9508 11.1438 66.874 11.1544C66.4887 11.2077 66.3257 11.3358 66.3135 11.733C66.3114 11.8038 66.3131 11.8745 66.3131 11.9453C66.3131 16.2147 66.3131 20.4843 66.3128 24.7537C66.3128 24.8481 66.3147 24.9429 66.3048 25.0363C66.2814 25.255 66.1337 25.4064 65.9174 25.4355C65.8324 25.4468 65.7458 25.4482 65.6599 25.4484C64.5798 25.4491 63.4998 25.4489 62.4197 25.4489C62.3885 25.4489 62.357 25.4494 62.3258 25.4487C61.8985 25.4399 61.7036 25.2406 61.7036 24.8082C61.7036 21.9457 61.7038 19.0836 61.7038 16.2215Z" fill="#383636"/>
<path d="M100.516 25.4484C99.8896 25.4486 99.2637 25.4453 98.6377 25.4498C98.2771 25.4524 98.1677 25.4002 97.9815 24.9896C97.7995 24.5883 97.6166 24.187 97.4438 23.7816C97.2846 23.4081 97.1221 23.0366 96.9521 22.6679C96.7638 22.2593 96.5967 21.8411 96.4138 21.43C96.1952 20.9391 95.9855 20.4439 95.7608 19.9563C95.5164 19.4263 95.283 18.8908 95.0475 18.3575C94.8416 17.8906 94.6326 17.4238 94.4373 16.9516C94.1572 16.2743 93.8369 15.6138 93.539 14.9441C93.3218 14.4561 93.1257 13.9584 92.8968 13.476C92.6491 12.9537 92.4359 12.4166 92.1847 11.8957C91.9649 11.4404 91.7858 10.9654 91.581 10.5023C91.3413 9.96023 91.0922 9.4224 90.8499 8.88151C90.6841 8.51139 90.5097 8.14458 90.3631 7.76668C90.2279 7.4178 90.3754 7.02363 90.8668 7.01632C92.0483 6.99886 93.2302 7.01136 94.4119 7.01018C94.6429 7.00995 94.8158 7.13214 94.913 7.31613C95.0945 7.65983 95.2393 8.02286 95.4027 8.37623C95.5746 8.74776 95.7509 9.11716 95.9247 9.48798C96.1374 9.94183 96.3499 10.3957 96.5617 10.8498C96.7267 11.2039 96.888 11.5598 97.0552 11.9129C97.1975 12.2132 97.3494 12.5088 97.4905 12.8096C97.6729 13.1983 97.8474 13.5908 98.028 13.9803C98.4663 14.9257 98.9059 15.8705 99.3456 16.8152C99.5971 17.3554 99.8462 17.8965 100.104 18.4337C100.183 18.5986 100.31 18.7 100.513 18.7068C100.719 18.7139 100.849 18.6059 100.93 18.4497C101.153 18.0185 101.36 17.5788 101.584 17.1474C101.838 16.6576 102.076 16.1597 102.323 15.6655C102.625 15.0578 102.926 14.4495 103.232 13.8437C103.439 13.4349 103.664 13.0355 103.862 12.6225C104.146 12.0264 104.442 11.436 104.738 10.8453C105.042 10.2369 105.343 9.62668 105.649 9.01879C105.886 8.5463 106.132 8.07806 106.368 7.6051C106.639 7.0642 106.901 6.51906 107.17 5.97745C107.442 5.43019 107.718 4.88433 107.993 4.33848C108.369 3.59118 108.75 2.84576 109.123 2.09705C109.222 1.89819 109.309 1.69391 109.423 1.50213C109.529 1.32498 109.662 1.23227 109.881 1.23369C111.086 1.24123 112.291 1.25114 113.496 1.23109C114.051 1.22189 114.177 1.68636 113.997 2.05152C113.78 2.49122 113.579 2.93776 113.364 3.37817C113.155 3.80749 112.95 4.23917 112.743 4.66967C112.524 5.12471 112.309 5.58139 112.098 6.0402C111.873 6.5292 111.603 6.99768 111.389 7.49093C111.194 7.94148 110.978 8.38212 110.769 8.82513C110.509 9.37428 110.247 9.92273 109.979 10.4683C109.763 10.909 109.556 11.3541 109.347 11.7978C109.214 12.08 109.085 12.3644 108.951 12.6459C108.728 13.1129 108.503 13.579 108.284 14.048C108.067 14.5134 107.838 14.9746 107.616 15.4383C107.289 16.1193 106.97 16.8039 106.642 17.4844C106.409 17.9685 106.166 18.4497 105.94 18.9366C105.706 19.4426 105.459 19.9431 105.23 20.4524C104.94 21.0985 104.606 21.7243 104.302 22.3641C103.998 23.0012 103.712 23.6466 103.409 24.2838C103.282 24.551 103.147 24.8138 103.024 25.0834C102.915 25.3207 102.733 25.4599 102.44 25.4526C101.8 25.437 101.158 25.4481 100.516 25.4484Z" fill="#383636"/>
<path d="M41.0744 16.2239C41.0744 13.3623 41.0741 10.5009 41.0758 7.63933C41.0758 7.52445 41.0558 7.40721 41.1248 7.29681C41.2397 7.11329 41.4115 7.03662 41.6132 7.01209C41.6902 7.00266 41.7696 7.01091 41.8478 7.01091C45.408 7.01091 48.9684 7.00431 52.5285 7.02153C52.8547 7.02318 53.1946 7.05243 53.5187 7.11329C53.9751 7.19892 54.4379 7.29587 54.8633 7.48529C55.5172 7.77638 56.1336 8.13375 56.6618 8.63431C57.1084 9.05727 57.4942 9.52103 57.802 10.0551C58.096 10.5653 58.3026 11.106 58.4449 11.6773C58.6428 12.4727 58.6703 13.2814 58.5984 14.0869C58.5062 15.1232 58.2028 16.0951 57.6121 16.9731C57.0694 17.7796 56.3806 18.4092 55.5468 18.8913C55.1077 19.1451 54.6379 19.331 54.1512 19.453C53.6375 19.5815 53.1132 19.6764 52.5776 19.6757C50.9031 19.6738 49.2287 19.6724 47.5542 19.6778C47.3088 19.6785 47.1391 19.59 47.0262 19.373C46.9907 19.3051 46.9902 19.2376 46.99 19.1683C46.9891 18.1855 46.9874 17.2031 46.9905 16.2203C46.9914 15.9177 47.175 15.7271 47.4734 15.7155C47.7 15.7068 47.9271 15.7117 48.1541 15.7117C49.3201 15.7115 50.4858 15.7184 51.6516 15.7073C51.9554 15.7044 52.2543 15.6367 52.5525 15.5549C53.0573 15.4162 53.4348 15.1291 53.7124 14.6941C53.8528 14.474 53.9319 14.2334 53.9803 13.9754C54.0521 13.5911 54.0465 13.2099 53.9706 12.8313C53.8711 12.334 53.6236 11.9203 53.2059 11.6268C52.8577 11.3822 52.467 11.2532 52.0406 11.2105C51.6671 11.173 51.2947 11.1499 50.9193 11.1508C49.3856 11.1546 47.8519 11.1522 46.3182 11.1522C46.2403 11.1522 46.1616 11.1451 46.0853 11.1704C45.8095 11.2624 45.6904 11.3558 45.6679 11.7342C45.6641 11.7969 45.6674 11.8599 45.6674 11.9229C45.6674 16.1916 45.6674 20.4602 45.6674 24.7289C45.6674 24.7839 45.6618 24.8395 45.6683 24.8938C45.7061 25.2115 45.465 25.4538 45.1239 25.4503C44.6388 25.4451 44.1537 25.4491 43.6686 25.4491C43.0114 25.4491 42.354 25.4507 41.6968 25.4481C41.5745 25.4477 41.4517 25.4557 41.3355 25.3866C41.1399 25.2698 41.0711 25.1056 41.0718 24.8794C41.0769 22.8748 41.0748 20.8702 41.0748 18.8656C41.0744 17.9848 41.0744 17.1044 41.0744 16.2239Z" fill="#383636"/>
<path d="M156.384 18.6165C155.924 19.097 155.467 19.5735 155.011 20.051C154.779 20.2944 154.557 20.5489 154.314 20.782C154.124 20.9646 154.065 21.1811 154.066 21.4312C154.067 22.4691 154.066 23.507 154.066 24.5449C154.066 24.6707 154.06 24.7969 154.067 24.9223C154.085 25.2196 153.881 25.4543 153.548 25.4472C153.493 25.446 153.438 25.4481 153.383 25.4481C152.327 25.4481 151.27 25.4481 150.214 25.4481C150.151 25.4481 150.088 25.4493 150.026 25.4472C149.657 25.4342 149.459 25.2285 149.459 24.8565C149.458 19.1088 149.458 13.3609 149.459 7.61315C149.459 7.24374 149.692 7.01115 150.065 7.01068C151.2 7.0095 152.335 7.00691 153.47 7.01233C153.844 7.01398 154.076 7.24775 154.074 7.60442C154.059 9.68002 154.066 11.7561 154.067 13.8317C154.067 13.9412 154.07 14.0471 154.109 14.1551C154.237 14.5078 154.568 14.596 154.838 14.3433C155.195 14.0103 155.54 13.664 155.891 13.325C156.812 12.4369 157.705 11.5202 158.627 10.634C159.664 9.63827 160.685 8.62818 161.705 7.61527C161.835 7.48529 161.971 7.36004 162.1 7.22841C162.246 7.0805 162.424 7.00809 162.638 7.00879C163.804 7.0121 164.97 7.01115 166.136 7.0095C166.337 7.00927 166.511 7.07461 166.632 7.23195C166.796 7.44425 166.767 7.70373 166.571 7.91603C166.418 8.08186 166.261 8.24368 166.105 8.40668C165.451 9.08864 164.796 9.76895 164.144 10.4528C163.386 11.2485 162.631 12.0474 161.873 12.844C161.17 13.5838 160.465 14.3224 159.761 15.0616C159.634 15.1954 159.509 15.331 159.38 15.4629C159.306 15.5379 159.312 15.5962 159.38 15.6794C159.89 16.3012 160.394 16.9275 160.899 17.5526C161.272 18.014 161.644 18.4764 162.017 18.9378C162.327 19.3214 162.638 19.7044 162.95 20.0868C163.315 20.5348 163.683 20.9808 164.048 21.429C164.612 22.1228 165.176 22.8173 165.739 23.5122C166.014 23.8512 166.284 24.1939 166.561 24.5305C166.617 24.598 166.663 24.6704 166.702 24.7454C166.85 25.0283 166.651 25.3998 166.334 25.4371C166.249 25.4472 166.163 25.4477 166.077 25.4477C164.957 25.4484 163.838 25.4425 162.719 25.4519C162.435 25.4543 162.223 25.3781 162.032 25.1502C161.53 24.548 160.997 23.9717 160.49 23.3733C159.913 22.6922 159.333 22.014 158.745 21.3434C158.189 20.71 157.65 20.0616 157.103 19.4202C156.912 19.1973 156.718 18.9781 156.532 18.7521C156.487 18.6981 156.434 18.6599 156.384 18.6165Z" fill="#383636"/>
<path d="M182.877 18.0014C182.538 17.3457 182.197 16.6913 181.861 16.0336C181.559 15.4392 181.264 14.8403 180.963 14.2446C180.775 13.8712 180.581 13.5002 180.391 13.1277C180.301 12.9531 180.179 12.834 179.965 12.8444C179.755 12.8545 179.632 12.9793 179.544 13.1515C179.256 13.7162 178.972 14.2826 178.684 14.8473C178.237 15.7246 177.788 16.6005 177.34 17.4773C176.871 18.3966 176.403 19.3158 175.936 20.236C175.474 21.1454 175.019 22.0578 174.554 22.9651C174.194 23.6671 173.821 24.3625 173.459 25.0633C173.424 25.1308 173.407 25.2048 173.356 25.2678C173.278 25.3634 173.19 25.4287 173.065 25.4353C172.987 25.4396 172.909 25.4476 172.831 25.4478C171.696 25.4485 170.561 25.4483 169.426 25.4485C169.269 25.4485 169.115 25.4433 168.986 25.3313C168.838 25.2034 168.776 24.8569 168.877 24.6639C169.102 24.233 169.327 23.8022 169.553 23.3722C169.889 22.736 170.217 22.0958 170.548 21.4575C170.875 20.8274 171.192 20.1905 171.514 19.5574C171.986 18.6299 172.465 17.7054 172.94 16.7798C173.269 16.1414 173.606 15.5076 173.92 14.862C174.108 14.4768 174.313 14.1005 174.511 13.7205C174.697 13.3652 174.878 13.0079 175.057 12.6495C175.321 12.1237 175.611 11.6114 175.877 11.0865C176.074 10.6978 176.275 10.3119 176.478 9.92642C176.687 9.52847 176.875 9.1192 177.081 8.71913C177.32 8.25443 177.579 7.8001 177.807 7.33021C177.924 7.0896 178.118 7.01694 178.345 7.01435C179.135 7.00491 179.925 7.01081 180.716 7.01081C180.966 7.01081 181.218 7.0285 181.467 7.0068C181.881 6.97071 182.137 7.16013 182.297 7.52576C182.536 8.07421 182.834 8.59293 183.099 9.12864C183.436 9.80918 183.787 10.4824 184.136 11.1564C184.431 11.7258 184.705 12.3063 185.009 12.8699C185.351 13.5032 185.669 14.1491 185.999 14.7879C186.364 15.4934 186.726 16.2006 187.087 16.9081C187.332 17.3886 187.582 17.8672 187.824 18.3489C188.178 19.0509 188.539 19.7496 188.893 20.4512C189.313 21.2824 189.729 22.1161 190.16 22.9415C190.425 23.4493 190.684 23.9598 190.948 24.4684C190.982 24.5359 190.997 24.5977 190.998 24.6672C191 24.8324 191.001 24.9975 190.998 25.1626C190.996 25.3138 190.937 25.3936 190.791 25.4235C190.693 25.4438 190.589 25.4469 190.488 25.4471C189.377 25.4485 188.265 25.436 187.154 25.4549C186.782 25.4613 186.562 25.3138 186.412 24.9892C186.128 24.3729 185.813 23.7725 185.493 23.1741C185.352 22.9103 185.223 22.6383 185.098 22.3661C185.053 22.2685 185.001 22.2343 184.91 22.23C184.847 22.2272 184.785 22.2286 184.722 22.2286C182.421 22.2286 180.12 22.2281 177.82 22.2295C177.685 22.2295 177.555 22.2244 177.432 22.1626C177.2 22.0456 177.095 21.7278 177.2 21.5115C177.577 20.7298 177.938 19.9405 178.309 19.1554C178.42 18.92 178.557 18.6957 178.655 18.4553C178.779 18.1524 179.025 18.0569 179.308 18.0526C180.114 18.0408 180.92 18.0484 181.726 18.0484C182.039 18.0484 182.352 18.0496 182.665 18.0474C182.732 18.0474 182.805 18.067 182.877 18.0014Z" fill="#383636"/>
<path d="M137.093 7.01102C139.777 7.01102 142.462 7.0129 145.146 7.00889C145.584 7.00819 145.823 7.31791 145.818 7.6675C145.804 8.62663 145.813 9.586 145.813 10.5451C145.814 10.7577 145.764 10.9405 145.575 11.0709C145.513 11.1136 145.455 11.1403 145.385 11.1452C145.307 11.1509 145.228 11.1516 145.15 11.1516C143.444 11.1518 141.738 11.1521 140.032 11.1514C139.841 11.1514 139.663 11.179 139.518 11.3231C139.459 11.3818 139.421 11.4418 139.42 11.5267C139.418 11.6444 139.406 11.7621 139.406 11.8798C139.406 16.1808 139.406 20.4816 139.406 24.7825C139.406 24.909 139.401 25.03 139.345 25.1496C139.27 25.3133 139.148 25.4058 138.976 25.4341C138.892 25.448 138.805 25.4482 138.719 25.4482C137.623 25.4489 136.528 25.4499 135.432 25.4471C135.295 25.4468 135.153 25.4657 135.026 25.3763C134.86 25.259 134.792 25.0923 134.769 24.901C134.76 24.8234 134.767 24.7439 134.767 24.6653C134.767 20.3565 134.767 16.0478 134.766 11.739C134.766 11.6149 134.782 11.4894 134.708 11.3733C134.607 11.2167 134.445 11.1896 134.286 11.1587C134.21 11.1441 134.13 11.1521 134.052 11.1521C132.377 11.1518 130.702 11.1521 129.027 11.1518C128.957 11.1518 128.886 11.154 128.816 11.1497C128.582 11.1351 128.408 10.9733 128.375 10.7397C128.368 10.6855 128.369 10.6301 128.369 10.5751C128.369 9.58435 128.37 8.59361 128.368 7.60287C128.368 7.46723 128.373 7.33466 128.467 7.22615C128.581 7.09428 128.731 7.02965 128.9 7.0122C128.993 7.00252 129.088 7.01102 129.181 7.01102C131.818 7.01102 134.456 7.01102 137.093 7.01102Z" fill="#383636"/>
<path d="M82.7046 16.2383C82.7046 13.3845 82.7041 10.5309 82.706 7.67712C82.706 7.54691 82.6854 7.41504 82.7661 7.29073C82.8946 7.09258 83.0735 7.01025 83.301 7.01025C84.4043 7.01073 85.5076 7.01073 86.6109 7.01025C86.7405 7.01025 86.8621 7.01497 86.9872 7.07866C87.1575 7.16523 87.273 7.27422 87.2868 7.47071C87.2918 7.54124 87.2918 7.61201 87.2918 7.68278C87.292 13.3902 87.292 19.0975 87.2913 24.8052C87.2913 24.9299 87.3105 25.0592 87.2453 25.1748C87.1607 25.3244 87.0459 25.434 86.8623 25.4416C86.7921 25.4444 86.7217 25.4482 86.6512 25.4482C85.5557 25.4487 84.4604 25.4484 83.3648 25.4482C83.3414 25.4482 83.3177 25.4463 83.2944 25.4484C82.8899 25.4857 82.6973 25.1875 82.6987 24.8467C82.7093 21.9773 82.7046 19.1079 82.7046 16.2383Z" fill="#383636"/>
<path d="M18.285 31.7505C18.1183 31.8069 17.9854 31.6871 17.845 31.6446C17.5459 31.5545 17.2634 31.4087 16.9744 31.2849C16.9162 31.2599 16.8718 31.2163 16.8345 31.1658C17.0402 31.1799 17.197 31.3174 17.379 31.3908C17.6349 31.4941 17.892 31.5894 18.1564 31.6661C18.2085 31.6814 18.2632 31.6901 18.285 31.7505Z" fill="#5B8388"/>
<path d="M16.8151 31.1525C16.5857 31.0584 16.3608 30.9583 16.2236 30.7334C16.4413 30.8442 16.6324 30.9922 16.8151 31.1525Z" fill="#5B8388"/>
<path d="M15.8478 30.3379C15.6934 30.241 15.6269 30.0866 15.5767 29.9214C15.5919 29.9233 15.6189 29.9216 15.6208 29.9275C15.6673 30.0807 15.8234 30.1729 15.8478 30.3379Z" fill="#5B8388"/>
<path d="M16.2156 30.7178C16.0827 30.6923 16.0116 30.5964 15.9531 30.4863C16.0785 30.5203 16.1346 30.6334 16.2156 30.7178Z" fill="#5B8388"/>
<path d="M18.6162 31.8448C18.5223 31.8693 18.4392 31.8629 18.3896 31.7632C18.4829 31.7411 18.569 31.7389 18.6162 31.8448Z" fill="#5B8388"/>
<path d="M15.5554 29.8251C15.4401 29.8038 15.465 29.7204 15.4758 29.6436C15.5636 29.677 15.588 29.7383 15.5554 29.8251Z" fill="#5B8388"/>
<path d="M15.9354 30.4381C15.8806 30.4357 15.8366 30.4228 15.8509 30.3521C15.8866 30.3736 15.9387 30.3783 15.9354 30.4381Z" fill="#5B8388"/>
</svg>
